<svg xmlns="http://www.w3.org/2000/svg" xmlns:xlink="http://www.w3.org/1999/xlink" width="16.995" height="16.999" viewBox="0 0 16.995 16.999">
  <defs>
    <filter id="菜单图标-首页" x="0" y="0" width="16.995" height="16.999" filterUnits="userSpaceOnUse">
      <feOffset dx="1" dy="1" input="SourceAlpha"/>
      <feGaussianBlur result="blur"/>
      <feFlood flood-opacity="0.2"/>
      <feComposite operator="in" in2="blur"/>
      <feComposite in="SourceGraphic"/>
    </filter>
  </defs>
  <g transform="matrix(1, 0, 0, 1, 0, 0)" filter="url(#菜单图标-首页)">
    <path id="菜单图标-首页-2" data-name="菜单图标-首页" d="M29.49,107h-.013a.5.5,0,0,1-.488-.5V104H27v2.5a.5.5,0,0,1-.5.5h-4a.5.5,0,0,1-.5-.5v-7.74l-1.011,1.06a.563.563,0,0,1-.824,0,.632.632,0,0,1,0-.864l7.415-7.775a.563.563,0,0,1,.823,0l7.415,7.775a.632.632,0,0,1,0,.864.564.564,0,0,1-.824,0L34,98.776v7.734a.49.49,0,0,1-.491.49ZM33,106V98.5a.5.5,0,0,1,.3-.458l-5.308-5.566L23,97.71V106h3v-2.5a.5.5,0,0,1,.5-.5h3a.5.5,0,0,1,.49.6V106Z" transform="translate(-19.99 -91)" fill="#fff" opacity="0.9"/>
  </g>
</svg>
